<svg width="45" height="39" viewBox="0 0 45 39" fill="none" xmlns="http://www.w3.org/2000/svg">
<path d="M0 38.6914V16.6797C0 11.7122 1.6862 7.86133 5.05859 5.12695C8.43099 2.34701 13.2389 0.638021 19.4824 0V10.7324C15.8366 11.2337 13.0339 12.168 11.0742 13.5352C9.11458 14.9023 7.81576 16.8164 7.17773 19.2773H19.4824V38.6914H0ZM25.0195 38.6914V16.6797C25.0195 11.7122 26.7057 7.86133 30.0781 5.12695C33.4505 2.34701 38.2585 0.638021 44.502 0V10.7324C40.8561 11.2337 38.0534 12.168 36.0938 13.5352C34.1341 14.9023 32.8353 16.8164 32.1973 19.2773H44.502V38.6914H25.0195Z" fill="white" fill-opacity="0.2"/>
</svg>
